<svg width="1018" height="508" viewBox="0 0 1018 508" fill="none" xmlns="http://www.w3.org/2000/svg">
<rect width="1018" height="508" fill="#EEE8DE"></rect>
<circle cx="645" cy="219" r="32" stroke="url(#paint0_linear_3_202)" stroke-width="2"></circle>
<circle cx="645" cy="219" r="46" stroke="url(#paint1_linear_3_202)" stroke-width="2"></circle>
<circle cx="645" cy="219" r="61" stroke="url(#paint2_linear_3_202)" stroke-width="2"></circle>
<path d="M742.002 238.719C745.345 238.719 748.308 239.213 750.892 240.201C753.475 241.188 755.488 242.746 756.932 244.873C758.375 247.001 759.097 249.736 759.097 253.079C759.097 256.194 758.147 258.853 756.248 261.056C754.424 263.184 751.993 264.931 748.954 266.299C745.991 267.666 742.724 268.806 739.153 269.718C735.582 270.553 732.125 271.199 728.782 271.655C728.782 275.986 729.276 279.329 730.264 281.684C731.328 283.963 732.657 285.559 734.253 286.471C735.848 287.306 737.444 287.724 739.039 287.724C740.331 287.724 741.85 287.496 743.598 287.04C745.421 286.509 747.245 285.445 749.068 283.849C750.892 282.254 752.487 279.899 753.855 276.784L760.237 279.861C758.109 284.799 755.716 288.598 753.057 291.257C750.398 293.916 747.625 295.74 744.737 296.727C741.85 297.715 738.925 298.209 735.962 298.209C728.972 298.285 723.426 296.272 719.323 292.169C715.221 288.066 713.169 281.798 713.169 273.365C713.169 269.718 713.739 265.881 714.879 261.854C716.018 257.827 717.728 254.067 720.007 250.572C722.362 247.077 725.363 244.228 729.01 242.024C732.657 239.821 736.988 238.719 742.002 238.719ZM740.749 246.241C738.165 246.241 736.076 247.153 734.481 248.976C732.885 250.8 731.669 253.117 730.834 255.928C729.998 258.663 729.428 261.436 729.124 264.247C733.227 263.488 736.494 262.462 738.925 261.17C741.357 259.879 743.104 258.397 744.168 256.726C745.307 255.054 745.839 253.307 745.763 251.483C745.687 249.584 745.117 248.254 744.054 247.495C742.99 246.659 741.888 246.241 740.749 246.241Z" fill="#0C0C0A"></path>
<path d="M684.059 298.209C680.412 298.209 677.031 297.677 673.916 296.613C670.877 295.55 668.408 294.03 666.508 292.055C664.609 290.003 663.659 287.648 663.659 284.989C663.659 282.634 664.343 280.734 665.711 279.291C667.154 277.771 668.902 277.011 670.953 277.011C673.004 277.011 674.676 277.695 675.967 279.063C677.259 280.43 677.905 282.102 677.905 284.077C677.905 284.609 677.829 285.179 677.677 285.787C677.601 286.319 677.449 286.888 677.221 287.496C677.601 288.256 678.589 288.978 680.184 289.662C681.856 290.345 683.261 290.687 684.401 290.687C687.744 290.687 690.061 289.965 691.353 288.522C692.72 287.078 693.404 285.445 693.404 283.621C693.404 282.178 692.834 280.924 691.695 279.861C690.631 278.721 689.225 277.619 687.478 276.556C685.73 275.492 683.869 274.39 681.894 273.251C678.323 271.199 675.36 269.3 673.004 267.552C670.649 265.805 668.902 263.981 667.762 262.082C666.698 260.107 666.166 257.789 666.166 255.13C666.166 252.471 667.002 249.888 668.674 247.381C670.345 244.873 672.776 242.822 675.967 241.226C679.234 239.555 683.185 238.719 687.82 238.719C690.859 238.719 693.822 239.213 696.709 240.201C699.672 241.188 702.103 242.632 704.003 244.531C705.978 246.355 706.966 248.596 706.966 251.255C706.966 253.231 706.32 254.978 705.028 256.498C703.737 258.017 701.989 258.777 699.786 258.777C697.735 258.777 696.063 258.093 694.772 256.726C693.556 255.282 692.948 253.649 692.948 251.825C692.948 251.217 692.986 250.648 693.062 250.116C693.214 249.584 693.404 249.052 693.632 248.52C693.024 247.684 692.074 247.115 690.783 246.811C689.567 246.431 688.428 246.241 687.364 246.241C686.3 246.241 685.161 246.469 683.945 246.925C682.805 247.381 681.818 248.064 680.982 248.976C680.146 249.812 679.728 250.875 679.728 252.167C679.728 253.231 679.956 254.18 680.412 255.016C680.944 255.776 681.97 256.688 683.489 257.751C685.009 258.739 687.288 260.145 690.327 261.968C692.834 263.412 695.379 264.969 697.963 266.641C700.622 268.312 702.825 270.288 704.573 272.567C706.396 274.77 707.308 277.467 707.308 280.658C707.308 284.077 706.282 287.116 704.231 289.776C702.179 292.435 699.406 294.524 695.911 296.044C692.416 297.487 688.466 298.209 684.059 298.209Z" fill="#0C0C0A"></path>
<path d="M641.904 238.719C645.855 238.719 648.59 239.935 650.11 242.366C651.705 244.721 652.503 247.912 652.503 251.939C652.503 253.763 652.313 256.232 651.933 259.347C651.553 262.462 651.135 265.729 650.679 269.148C650.224 272.567 649.806 275.682 649.426 278.493C649.046 281.304 648.856 283.356 648.856 284.647C648.856 285.863 649.046 286.66 649.426 287.04C649.806 287.42 650.186 287.61 650.565 287.61C651.477 287.61 652.389 286.964 653.301 285.673C654.212 284.381 655.162 282.026 656.15 278.607L662.304 280.43C662 282.026 661.392 283.849 660.48 285.901C659.645 287.952 658.505 289.927 657.061 291.827C655.618 293.65 653.87 295.17 651.819 296.385C649.844 297.601 647.564 298.209 644.981 298.209C640.802 298.209 637.915 297.069 636.32 294.79C634.8 292.511 634.041 289.358 634.041 285.331C634.041 283.128 634.23 280.506 634.61 277.467C634.99 274.428 635.408 271.313 635.864 268.122C636.396 264.931 636.852 261.968 637.232 259.233C637.611 256.422 637.801 254.105 637.801 252.281C637.801 250.989 637.611 250.192 637.232 249.888C636.852 249.508 636.434 249.318 635.978 249.318C635.142 249.318 634.268 249.964 633.357 251.255C632.445 252.547 631.495 254.902 630.508 258.321L624.354 256.498C624.657 254.902 625.265 253.079 626.177 251.027C627.089 248.976 628.266 247.039 629.71 245.215C631.229 243.316 632.977 241.758 634.952 240.543C637.004 239.327 639.321 238.719 641.904 238.719Z" fill="#0C0C0A"></path>
<circle cx="645" cy="219" r="10" fill="#EB3F00"></circle>
<path d="M584.337 296.955C584.185 295.36 584.071 294.258 583.995 293.65C583.995 292.967 583.995 292.245 583.995 291.485C583.995 289.889 584.071 287.99 584.223 285.787C584.451 283.507 584.717 281.076 585.021 278.493C585.325 275.91 585.629 273.365 585.933 270.857C586.313 268.122 586.654 265.539 586.958 263.108C587.338 260.601 587.604 258.397 587.756 256.498C587.984 254.598 588.098 253.193 588.098 252.281C588.098 250.989 587.908 250.192 587.528 249.888C587.224 249.508 586.882 249.318 586.503 249.318C585.667 249.318 584.793 249.964 583.881 251.255C582.97 252.547 582.02 254.902 581.032 258.321L574.764 256.498C575.144 254.902 575.676 253.079 576.36 251.027C577.043 248.976 577.993 247.039 579.209 245.215C580.424 243.316 581.906 241.758 583.653 240.543C585.401 239.327 587.528 238.719 590.035 238.719C592.467 238.719 594.67 239.441 596.645 240.885C598.621 242.328 599.609 245.063 599.609 249.09C599.609 250.306 599.495 251.749 599.267 253.421C599.115 255.092 598.849 257.03 598.469 259.233H598.583C600.634 253.459 602.724 249.128 604.851 246.241C607.054 243.278 609.22 241.302 611.347 240.315C613.474 239.251 615.45 238.719 617.273 238.719C620.16 238.719 622.477 239.517 624.225 241.113C625.972 242.632 626.846 244.721 626.846 247.381C626.846 249.356 626.124 251.141 624.681 252.737C623.313 254.332 621.49 255.13 619.21 255.13C617.539 255.13 616.057 254.598 614.766 253.535C613.474 252.471 612.866 251.027 612.942 249.204C611.651 249.052 610.321 249.812 608.954 251.483C607.662 253.079 606.408 255.32 605.193 258.207C604.053 261.018 602.989 264.171 602.002 267.666C601.09 271.161 600.33 274.732 599.722 278.379C599.191 282.026 598.925 285.483 598.925 288.75C598.925 289.738 598.963 291.143 599.039 292.967C599.115 294.714 599.191 296.044 599.267 296.955H584.337Z" fill="#0C0C0A"></path>
<path d="M544.591 215.356C547.554 215.356 550.745 215.85 554.164 216.838C557.659 217.75 560.888 219.117 563.851 220.941H563.965L563.851 216.154H572.626L571.259 242.708H563.737C563.053 236.402 561.192 231.577 558.153 228.234C555.114 224.816 550.935 223.106 545.617 223.106C541.666 223.106 538.133 224.018 535.018 225.841C531.979 227.665 529.396 230.172 527.268 233.363C525.141 236.478 523.47 240.011 522.254 243.962C521.114 247.836 520.43 251.825 520.203 255.928C519.899 262.462 520.544 268.312 522.14 273.479C523.811 278.569 526.357 282.596 529.776 285.559C533.271 288.522 537.563 290.041 542.654 290.117C547.212 290.193 551.961 289.13 556.899 286.926C561.838 284.647 566.244 281 570.119 275.986L574.564 280.544C570.613 285.635 566.51 289.51 562.256 292.169C558.077 294.752 554.012 296.499 550.061 297.411C546.111 298.323 542.54 298.779 539.349 298.779C533.498 298.779 528.218 297.753 523.508 295.702C518.873 293.574 514.922 290.687 511.655 287.04C508.388 283.318 505.957 279.025 504.361 274.162C502.766 269.224 502.12 263.906 502.424 258.207C502.728 253.041 503.83 247.912 505.729 242.822C507.704 237.732 510.44 233.135 513.934 229.032C517.505 224.854 521.836 221.549 526.926 219.117C532.093 216.61 537.981 215.356 544.591 215.356Z" fill="#0C0C0A"></path>
<path d="M454.341 298.209C450.162 298.209 447.313 297.069 445.794 294.79C444.35 292.511 443.628 289.358 443.628 285.331C443.628 283.052 443.78 280.506 444.084 277.695C444.388 274.808 444.692 271.883 444.996 268.92C445.376 265.957 445.718 263.184 446.022 260.601C446.325 257.941 446.477 255.738 446.477 253.991C446.477 252.851 446.363 251.939 446.135 251.255C445.984 250.496 445.68 249.964 445.224 249.66C444.768 249.356 444.122 249.204 443.286 249.204C441.919 249.204 440.513 250.04 439.07 251.711C437.626 253.307 436.221 255.51 434.853 258.321C433.561 261.056 432.384 264.133 431.32 267.552C430.332 270.971 429.535 274.466 428.927 278.037C428.319 281.608 428.015 284.989 428.015 288.18C428.015 289.168 428.053 290.535 428.129 292.283C428.205 293.954 428.281 295.512 428.357 296.955H413.656C413.504 295.36 413.39 293.878 413.314 292.511C413.314 291.067 413.314 290.003 413.314 289.32C413.314 286.053 413.428 282.748 413.656 279.405C413.959 275.986 414.263 272.681 414.567 269.49C414.947 266.223 415.251 263.26 415.479 260.601C415.783 257.941 415.935 255.738 415.935 253.991C415.935 252.243 415.669 251.027 415.137 250.344C414.681 249.584 413.883 249.204 412.744 249.204C411.376 249.204 409.933 250.04 408.413 251.711C406.97 253.383 405.564 255.662 404.196 258.549C402.829 261.36 401.575 264.513 400.436 268.008C399.372 271.427 398.498 274.96 397.814 278.607C397.207 282.178 396.903 285.559 396.903 288.75C396.903 289.738 396.941 291.143 397.017 292.967C397.093 294.714 397.169 296.044 397.245 296.955H382.657C382.505 295.36 382.391 294.258 382.315 293.65C382.315 292.967 382.315 292.245 382.315 291.485C382.315 289.965 382.391 288.218 382.543 286.243C382.695 284.191 382.923 281.988 383.227 279.633C383.531 277.201 383.835 274.808 384.139 272.453C384.367 270.25 384.594 268.122 384.822 266.071C385.126 264.019 385.392 262.082 385.62 260.259C385.848 258.435 386.038 256.84 386.19 255.472C386.342 254.105 386.418 253.041 386.418 252.281C386.418 250.989 386.228 250.192 385.848 249.888C385.544 249.508 385.202 249.318 384.822 249.318C383.987 249.318 383.113 249.964 382.201 251.255C381.289 252.547 380.34 254.902 379.352 258.321L373.084 256.498C373.464 254.902 373.996 253.079 374.679 251.027C375.363 248.976 376.313 247.039 377.529 245.215C378.744 243.316 380.226 241.758 381.973 240.543C383.721 239.327 385.848 238.719 388.355 238.719C390.027 238.719 391.584 239.023 393.028 239.631C394.471 240.239 395.649 241.302 396.561 242.822C397.472 244.266 397.928 246.355 397.928 249.09C397.928 250.534 397.852 251.711 397.7 252.623C397.548 253.535 397.397 254.636 397.245 255.928H397.359C399.182 251.369 401.195 247.836 403.399 245.329C405.678 242.822 407.995 241.113 410.351 240.201C412.782 239.213 415.061 238.719 417.188 238.719C419.696 238.719 421.747 239.251 423.343 240.315C425.014 241.302 426.268 242.784 427.103 244.759C427.939 246.735 428.357 249.09 428.357 251.825C428.357 252.433 428.357 253.079 428.357 253.763C428.357 254.446 428.281 255.168 428.129 255.928H428.243C430.066 251.369 432.004 247.836 434.055 245.329C436.183 242.822 438.386 241.113 440.665 240.201C442.944 239.213 445.148 238.719 447.275 238.719C450.542 238.719 453.163 239.441 455.139 240.885C457.19 242.328 458.672 244.379 459.583 247.039C460.571 249.622 461.065 252.699 461.065 256.27C461.065 259.005 460.837 262.044 460.381 265.387C459.925 268.73 459.431 272.073 458.9 275.416C458.444 278.759 458.216 281.836 458.216 284.647C458.216 285.863 458.406 286.66 458.786 287.04C459.165 287.42 459.545 287.61 459.925 287.61C460.761 287.61 461.635 286.964 462.546 285.673C463.458 284.381 464.408 282.026 465.396 278.607L471.664 280.43C471.36 282.026 470.752 283.849 469.84 285.901C468.928 287.952 467.751 289.927 466.307 291.827C464.94 293.65 463.23 295.17 461.179 296.385C459.203 297.601 456.924 298.209 454.341 298.209Z" fill="#0C0C0A"></path>
<path d="M352.585 238.719C355.928 238.719 358.891 239.213 361.474 240.201C364.058 241.188 366.071 242.746 367.514 244.873C368.958 247.001 369.68 249.736 369.68 253.079C369.68 256.194 368.73 258.853 366.831 261.056C365.007 263.184 362.576 264.931 359.537 266.299C356.574 267.666 353.307 268.806 349.736 269.718C346.165 270.553 342.708 271.199 339.365 271.655C339.365 275.986 339.859 279.329 340.847 281.684C341.91 283.963 343.24 285.559 344.835 286.471C346.431 287.306 348.026 287.724 349.622 287.724C350.914 287.724 352.433 287.496 354.181 287.04C356.004 286.509 357.827 285.445 359.651 283.849C361.474 282.254 363.07 279.899 364.437 276.784L370.819 279.861C368.692 284.799 366.299 288.598 363.64 291.257C360.98 293.916 358.207 295.74 355.32 296.727C352.433 297.715 349.508 298.209 346.545 298.209C339.555 298.285 334.009 296.272 329.906 292.169C325.803 288.066 323.752 281.798 323.752 273.365C323.752 269.718 324.322 265.881 325.461 261.854C326.601 257.827 328.311 254.067 330.59 250.572C332.945 247.077 335.946 244.228 339.593 242.024C343.24 239.821 347.571 238.719 352.585 238.719ZM351.331 246.241C348.748 246.241 346.659 247.153 345.063 248.976C343.468 250.8 342.252 253.117 341.417 255.928C340.581 258.663 340.011 261.436 339.707 264.247C343.81 263.488 347.077 262.462 349.508 261.17C351.939 259.879 353.687 258.397 354.75 256.726C355.89 255.054 356.422 253.307 356.346 251.483C356.27 249.584 355.7 248.254 354.636 247.495C353.573 246.659 352.471 246.241 351.331 246.241Z" fill="#0C0C0A"></path>
<path d="M287.539 298.779C284.576 298.779 281.309 298.285 277.738 297.297C274.244 296.386 271.053 295.018 268.165 293.194V297.981H259.39L260.758 271.313H268.279C268.735 275.568 269.875 279.139 271.698 282.026C273.522 284.837 275.877 286.964 278.764 288.408C281.651 289.852 284.842 290.573 288.337 290.573C291.072 290.573 293.466 290.079 295.517 289.092C297.644 288.104 299.316 286.812 300.531 285.217C301.823 283.545 302.507 281.76 302.583 279.861C302.735 277.201 301.937 274.998 300.19 273.251C298.442 271.427 296.201 269.908 293.466 268.692C290.73 267.4 287.957 266.185 285.146 265.045C280.36 263.07 276.067 260.866 272.268 258.435C268.469 256.004 265.544 253.079 263.493 249.66C261.442 246.241 260.53 242.062 260.758 237.124C260.91 234.768 261.479 232.337 262.467 229.83C263.531 227.247 265.126 224.892 267.254 222.764C269.457 220.561 272.306 218.775 275.801 217.408C279.296 216.04 283.551 215.356 288.565 215.356C291.604 215.356 294.909 215.812 298.48 216.724C302.051 217.636 305.014 219.003 307.369 220.827V216.154H316.145L314.777 242.708H307.255C306.8 238.453 305.774 234.92 304.178 232.109C302.583 229.222 300.455 227.057 297.796 225.613C295.213 224.17 292.136 223.486 288.565 223.562C285.298 223.562 282.373 224.474 279.79 226.297C277.283 228.121 275.953 230.476 275.801 233.363C275.725 235.718 276.295 237.808 277.511 239.631C278.726 241.378 280.626 243.05 283.209 244.645C285.868 246.165 289.249 247.76 293.352 249.432C296.163 250.572 299.05 251.901 302.013 253.421C304.976 254.94 307.673 256.726 310.105 258.777C312.612 260.828 314.587 263.26 316.031 266.071C317.55 268.806 318.234 272.035 318.082 275.758C317.854 280.24 316.411 284.229 313.751 287.724C311.168 291.219 307.635 293.954 303.153 295.93C298.67 297.829 293.466 298.779 287.539 298.779Z" fill="#0C0C0A"></path>
<path opacity="0.3" d="M259.976 380.526L266.816 354.246H271.172L277.976 380.526H274.7L272.972 373.542H265.016L263.288 380.526H259.976ZM265.664 370.806H272.288L270.272 362.706C269.888 361.17 269.588 359.886 269.372 358.854C269.156 357.822 269.024 357.15 268.976 356.838C268.928 357.15 268.796 357.822 268.58 358.854C268.364 359.886 268.064 361.158 267.68 362.67L265.664 370.806ZM322.705 380.886C320.977 380.886 319.489 380.598 318.241 380.022C317.017 379.446 316.069 378.618 315.397 377.538C314.725 376.458 314.377 375.174 314.353 373.686H317.593C317.593 375.006 318.037 376.05 318.925 376.818C319.837 377.586 321.097 377.97 322.705 377.97C324.217 377.97 325.393 377.598 326.233 376.854C327.097 376.11 327.529 375.078 327.529 373.758C327.529 372.702 327.241 371.778 326.665 370.986C326.113 370.194 325.309 369.642 324.253 369.33L320.689 368.214C318.889 367.662 317.497 366.738 316.513 365.442C315.553 364.146 315.073 362.622 315.073 360.87C315.073 359.454 315.385 358.23 316.009 357.198C316.657 356.142 317.557 355.326 318.709 354.75C319.861 354.15 321.217 353.85 322.777 353.85C325.081 353.85 326.929 354.498 328.321 355.794C329.713 357.066 330.421 358.77 330.445 360.906H327.205C327.205 359.61 326.809 358.602 326.017 357.882C325.249 357.138 324.157 356.766 322.741 356.766C321.349 356.766 320.257 357.102 319.465 357.774C318.697 358.446 318.313 359.382 318.313 360.582C318.313 361.662 318.601 362.598 319.177 363.39C319.753 364.182 320.581 364.746 321.661 365.082L325.261 366.234C327.013 366.786 328.369 367.722 329.329 369.042C330.289 370.362 330.769 371.91 330.769 373.686C330.769 375.126 330.433 376.386 329.761 377.466C329.089 378.546 328.141 379.386 326.917 379.986C325.717 380.586 324.313 380.886 322.705 380.886ZM376.291 380.886C374.563 380.886 373.075 380.598 371.827 380.022C370.603 379.446 369.655 378.618 368.983 377.538C368.311 376.458 367.963 375.174 367.939 373.686H371.179C371.179 375.006 371.623 376.05 372.511 376.818C373.423 377.586 374.683 377.97 376.291 377.97C377.803 377.97 378.979 377.598 379.819 376.854C380.683 376.11 381.115 375.078 381.115 373.758C381.115 372.702 380.827 371.778 380.251 370.986C379.699 370.194 378.895 369.642 377.839 369.33L374.275 368.214C372.475 367.662 371.083 366.738 370.099 365.442C369.139 364.146 368.659 362.622 368.659 360.87C368.659 359.454 368.971 358.23 369.595 357.198C370.243 356.142 371.143 355.326 372.295 354.75C373.447 354.15 374.803 353.85 376.363 353.85C378.667 353.85 380.515 354.498 381.907 355.794C383.299 357.066 384.007 358.77 384.031 360.906H380.791C380.791 359.61 380.395 358.602 379.603 357.882C378.835 357.138 377.743 356.766 376.327 356.766C374.935 356.766 373.843 357.102 373.051 357.774C372.283 358.446 371.899 359.382 371.899 360.582C371.899 361.662 372.187 362.598 372.763 363.39C373.339 364.182 374.167 364.746 375.247 365.082L378.847 366.234C380.599 366.786 381.955 367.722 382.915 369.042C383.875 370.362 384.355 371.91 384.355 373.686C384.355 375.126 384.019 376.386 383.347 377.466C382.675 378.546 381.727 379.386 380.503 379.986C379.303 380.586 377.899 380.886 376.291 380.886ZM422.533 380.526V354.246H437.653V357.198H425.737V365.334H436.393V368.25H425.737V377.574H437.653V380.526H422.533ZM483.463 380.886C481.735 380.886 480.247 380.598 478.999 380.022C477.775 379.446 476.827 378.618 476.155 377.538C475.483 376.458 475.135 375.174 475.111 373.686H478.351C478.351 375.006 478.795 376.05 479.683 376.818C480.595 377.586 481.855 377.97 483.463 377.97C484.975 377.97 486.151 377.598 486.991 376.854C487.855 376.11 488.287 375.078 488.287 373.758C488.287 372.702 487.999 371.778 487.423 370.986C486.871 370.194 486.067 369.642 485.011 369.33L481.447 368.214C479.647 367.662 478.255 366.738 477.271 365.442C476.311 364.146 475.831 362.622 475.831 360.87C475.831 359.454 476.143 358.23 476.767 357.198C477.415 356.142 478.315 355.326 479.467 354.75C480.619 354.15 481.975 353.85 483.535 353.85C485.839 353.85 487.687 354.498 489.079 355.794C490.471 357.066 491.179 358.77 491.203 360.906H487.963C487.963 359.61 487.567 358.602 486.775 357.882C486.007 357.138 484.915 356.766 483.499 356.766C482.107 356.766 481.015 357.102 480.223 357.774C479.455 358.446 479.071 359.382 479.071 360.582C479.071 361.662 479.359 362.598 479.935 363.39C480.511 364.182 481.339 364.746 482.419 365.082L486.019 366.234C487.771 366.786 489.127 367.722 490.087 369.042C491.047 370.362 491.527 371.91 491.527 373.686C491.527 375.126 491.191 376.386 490.519 377.466C489.847 378.546 488.899 379.386 487.675 379.986C486.475 380.586 485.071 380.886 483.463 380.886ZM537.049 380.886C535.321 380.886 533.833 380.598 532.585 380.022C531.361 379.446 530.413 378.618 529.741 377.538C529.069 376.458 528.721 375.174 528.697 373.686H531.937C531.937 375.006 532.381 376.05 533.269 376.818C534.181 377.586 535.441 377.97 537.049 377.97C538.561 377.97 539.737 377.598 540.577 376.854C541.441 376.11 541.873 375.078 541.873 373.758C541.873 372.702 541.585 371.778 541.009 370.986C540.457 370.194 539.653 369.642 538.597 369.33L535.033 368.214C533.233 367.662 531.841 366.738 530.857 365.442C529.897 364.146 529.417 362.622 529.417 360.87C529.417 359.454 529.729 358.23 530.353 357.198C531.001 356.142 531.901 355.326 533.053 354.75C534.205 354.15 535.561 353.85 537.121 353.85C539.425 353.85 541.273 354.498 542.665 355.794C544.057 357.066 544.765 358.77 544.789 360.906H541.549C541.549 359.61 541.153 358.602 540.361 357.882C539.593 357.138 538.501 356.766 537.085 356.766C535.693 356.766 534.601 357.102 533.809 357.774C533.041 358.446 532.657 359.382 532.657 360.582C532.657 361.662 532.945 362.598 533.521 363.39C534.097 364.182 534.925 364.746 536.005 365.082L539.605 366.234C541.357 366.786 542.713 367.722 543.673 369.042C544.633 370.362 545.113 371.91 545.113 373.686C545.113 375.126 544.777 376.386 544.105 377.466C543.433 378.546 542.485 379.386 541.261 379.986C540.061 380.586 538.657 380.886 537.049 380.886ZM590.491 380.886C588.907 380.886 587.539 380.586 586.387 379.986C585.259 379.386 584.383 378.522 583.759 377.394C583.159 376.242 582.859 374.886 582.859 373.326V361.446C582.859 359.862 583.159 358.506 583.759 357.378C584.383 356.25 585.259 355.386 586.387 354.786C587.539 354.186 588.907 353.886 590.491 353.886C592.075 353.886 593.431 354.186 594.559 354.786C595.711 355.386 596.587 356.25 597.187 357.378C597.811 358.506 598.123 359.85 598.123 361.41V373.326C598.123 374.886 597.811 376.242 597.187 377.394C596.587 378.522 595.711 379.386 594.559 379.986C593.431 380.586 592.075 380.886 590.491 380.886ZM590.491 377.97C591.907 377.97 592.987 377.574 593.731 376.782C594.499 375.966 594.883 374.814 594.883 373.326V361.446C594.883 359.958 594.499 358.818 593.731 358.026C592.987 357.21 591.907 356.802 590.491 356.802C589.099 356.802 588.019 357.21 587.251 358.026C586.483 358.818 586.099 359.958 586.099 361.446V373.326C586.099 374.814 586.483 375.966 587.251 376.782C588.019 377.574 589.099 377.97 590.491 377.97ZM636.589 380.526V354.246H644.725C646.285 354.246 647.653 354.57 648.829 355.218C650.005 355.842 650.917 356.718 651.565 357.846C652.213 358.974 652.537 360.294 652.537 361.806C652.537 363.582 652.069 365.106 651.133 366.378C650.221 367.65 648.973 368.526 647.389 369.006L652.897 380.526H649.081L644.041 369.366H639.829V380.526H636.589ZM639.829 366.45H644.725C646.069 366.45 647.149 366.03 647.965 365.19C648.781 364.326 649.189 363.198 649.189 361.806C649.189 360.39 648.781 359.262 647.965 358.422C647.149 357.582 646.069 357.162 644.725 357.162H639.829V366.45ZM690.643 380.526V377.574H696.007V357.198H690.643V354.246H704.683V357.198H699.319V377.574H704.683V380.526H690.643ZM742.249 380.526L749.089 354.246H753.445L760.249 380.526H756.973L755.245 373.542H747.289L745.561 380.526H742.249ZM747.937 370.806H754.561L752.545 362.706C752.161 361.17 751.861 359.886 751.645 358.854C751.429 357.822 751.297 357.15 751.249 356.838C751.201 357.15 751.069 357.822 750.853 358.854C750.637 359.886 750.337 361.158 749.953 362.67L747.937 370.806Z" fill="#0C0C0A"></path>
<defs>
<linearGradient id="paint0_linear_3_202" x1="645" y1="186" x2="645" y2="237.5" gradientUnits="userSpaceOnUse">
<stop stop-color="#EB3F00"></stop>
<stop offset="1" stop-color="#EB3F00" stop-opacity="0"></stop>
</linearGradient>
<linearGradient id="paint1_linear_3_202" x1="645" y1="172" x2="645" y2="237" gradientUnits="userSpaceOnUse">
<stop stop-color="#EB3F00"></stop>
<stop offset="1" stop-color="#EB3F00" stop-opacity="0"></stop>
</linearGradient>
<linearGradient id="paint2_linear_3_202" x1="645" y1="157" x2="645" y2="237.5" gradientUnits="userSpaceOnUse">
<stop stop-color="#EB3F00"></stop>
<stop offset="1" stop-color="#EB3F00" stop-opacity="0"></stop>
</linearGradient>
</defs>
</svg>